# Blender 4.2.3 LTS
# www.blender.org
mtllib flower.mtl
o Flower
v -0.521217 0.564231 -0.089162
v -0.395582 0.584352 0.130485
v -0.144313 0.624596 0.130485
v -0.018679 0.644718 -0.089162
v -0.144313 0.624596 -0.308809
v -0.395583 0.584352 -0.308809
v -0.475134 0.587597 -0.089162
v -0.373789 0.603829 0.088019
v -0.171099 0.636292 0.088019
v -0.069755 0.652523 -0.089162
v -0.171100 0.636292 -0.266343
v -0.373789 0.603829 -0.266343
v -0.364803 0.614845 -0.089162
v -0.319371 0.622121 -0.009734
v -0.228508 0.636674 -0.009734
v -0.183076 0.643950 -0.089162
v -0.228508 0.636674 -0.168590
v -0.319371 0.622121 -0.168590
v -0.285305 0.620226 -0.067284
v -0.297819 0.618222 -0.089162
v -0.285305 0.620226 -0.111040
v -0.260278 0.624234 -0.111040
v -0.247764 0.626238 -0.089162
v -0.260278 0.624234 -0.067284
v -0.243423 0.423941 -0.067284
v -0.255804 0.422115 -0.089162
v -0.243423 0.423941 -0.111039
v -0.218663 0.427595 -0.111040
v -0.206283 0.429421 -0.089162
v -0.218663 0.427595 -0.067284
v -0.147876 0.244750 -0.067284
v -0.159930 0.241390 -0.089162
v -0.147876 0.244750 -0.111040
v -0.123768 0.251471 -0.111040
v -0.111713 0.254831 -0.089162
v -0.123768 0.251471 -0.067284
v -0.064607 0.092787 -0.067284
v -0.076712 0.089613 -0.089162
v -0.064607 0.092787 -0.111040
v -0.040398 0.099136 -0.111040
v -0.028293 0.102310 -0.089162
v -0.040398 0.099136 -0.067284
v -0.044655 0.015720 -0.081717
v -0.032941 0.018765 -0.103594
v 0.004032 0.328993 0.559683
v 0.215890 0.378439 0.428115
v 0.202810 0.419891 0.178241
v -0.022127 0.411897 0.059935
v -0.233985 0.362452 0.191502
v -0.220905 0.320999 0.441376
v -0.000442 0.352443 0.514036
v 0.170456 0.392329 0.407905
v 0.159905 0.425767 0.206341
v -0.021544 0.419319 0.110907
v -0.192442 0.379433 0.217038
v -0.181891 0.345995 0.418602
v -0.007429 0.380139 0.404426
v 0.069183 0.398020 0.356848
v 0.064453 0.413009 0.266490
v -0.016888 0.410119 0.223708
v -0.093500 0.392238 0.271285
v -0.088770 0.377248 0.361644
v 0.011141 0.388826 0.324626
v -0.009961 0.383901 0.337730
v -0.032366 0.383105 0.325947
v -0.033668 0.387234 0.301059
v -0.012567 0.392159 0.287954
v 0.009838 0.392955 0.299738
v 0.024728 0.158658 0.145622
v 0.007152 0.157960 0.163699
v -0.016206 0.166481 0.159327
v -0.021988 0.175701 0.136878
v -0.004411 0.176400 0.118801
v 0.018947 0.167878 0.123172
v 0.023630 0.000996 -0.067041
v 0.012697 0.003963 -0.044225
v -0.019834 0.004591 -0.062226
v -0.012316 0.021600 -0.069054
v 0.521776 0.375368 -0.172805
v 0.390867 0.384235 -0.390104
v 0.155675 0.480738 -0.393338
v 0.051393 0.568375 -0.179273
v 0.182302 0.559508 0.038026
v 0.417494 0.463004 0.041260
v 0.482272 0.408347 -0.176409
v 0.376673 0.415500 -0.351696
v 0.186952 0.493345 -0.354305
v 0.102832 0.564039 -0.181626
v 0.208431 0.556886 -0.006339
v 0.398151 0.479040 -0.003731
v 0.381176 0.459875 -0.179633
v 0.333837 0.463082 -0.258212
v 0.248788 0.497979 -0.259382
v 0.211077 0.529670 -0.181972
v 0.258416 0.526464 -0.103393
v 0.343466 0.491566 -0.102223
v 0.303769 0.479458 -0.200754
v 0.316808 0.478575 -0.179110
v 0.306422 0.487303 -0.157789
v 0.282996 0.496916 -0.158111
v 0.269957 0.497799 -0.179755
v 0.280344 0.489070 -0.201076
v 0.218463 0.301507 -0.140468
v 0.231412 0.300824 -0.118856
v 0.221115 0.309352 -0.097503
v 0.197867 0.318563 -0.097763
v 0.184918 0.319246 -0.119375
v 0.195215 0.310718 -0.140728
v 0.129963 0.110615 -0.103442
v 0.142237 0.104329 -0.082350
v 0.132610 0.110002 -0.059771
v 0.110711 0.121963 -0.058283
v 0.098437 0.128249 -0.079375
v 0.108064 0.122575 -0.101954
v 0.029979 0.010264 -0.109692
v 0.042252 0.003978 -0.088600
v 0.021200 0.021616 -0.064533
v 0.000081 0.024931 -0.085624
v -0.013272 0.008803 -0.105690
v -0.038868 -0.004335 -0.081328
v -0.029621 -0.004235 -0.100446
v 0.022279 -0.004764 -0.069837
v 0.012693 -0.004676 -0.049839
v -0.011684 -0.004669 -0.053440
v 0.026450 -0.004473 -0.109692
v 0.038727 -0.004663 -0.088600
v -0.013279 -0.004538 -0.105690
vn -0.3013 0.9158 0.2654
vn -0.3822 0.9241 -0.0000
vn -0.4522 0.8919 -0.0000
vn 0.0002 0.9641 0.2654
vn -0.2680 0.9422 0.2009
vn 0.1511 0.9885 -0.0000
vn -0.0397 0.9788 0.2009
vn 0.0002 0.9641 -0.2654
vn 0.0745 0.9972 -0.0000
vn -0.3013 0.9158 -0.2654
vn -0.0397 0.9788 -0.2009
vn -0.2680 0.9422 -0.2009
vn -0.1031 0.9947 -0.0000
vn -0.1853 0.9815 -0.0482
vn -0.2127 0.9771 -0.0000
vn -0.1853 0.9815 0.0482
vn -0.1305 0.9903 0.0482
vn -0.1305 0.9903 -0.0482
vn 0.1963 -0.9782 -0.0680
vn 0.2349 -0.9720 -0.0000
vn 0.1963 -0.9782 0.0680
vn 0.1190 -0.9906 0.0680
vn 0.0804 -0.9968 -0.0000
vn 0.1190 -0.9906 -0.0680
vn -0.8466 -0.1813 0.5003
vn -0.8218 -0.2914 0.4896
vn -0.8171 -0.3061 0.4886
vn -0.8466 -0.1813 -0.5003
vn -0.8218 -0.2914 -0.4896
vn -0.8464 -0.1813 -0.5007
vn -0.0000 -0.0000 -1.0000
vn 0.8470 0.1792 -0.5004
vn 0.8214 0.2928 -0.4895
vn 0.8468 0.1792 -0.5008
vn 0.8470 0.1792 0.5004
vn 0.4417 0.1575 0.8832
vn 0.8164 0.3081 0.4884
vn 0.4766 0.1009 0.8733
vn -0.0000 -0.0000 1.0000
vn -0.7687 -0.4152 0.4866
vn -0.7681 -0.4157 0.4870
vn -0.8171 -0.3061 -0.4886
vn -0.7687 -0.4152 -0.4866
vn 0.8164 0.3081 -0.4884
vn 0.7675 0.4176 -0.4863
vn 0.4440 0.2416 0.8629
vn 0.7671 0.4178 0.4868
vn -0.7900 -0.3677 0.4906
vn -0.7816 -0.3580 0.5109
vn -0.7681 -0.4157 -0.4870
vn -0.7753 -0.4034 -0.4860
vn 0.0104 -0.0397 -0.9992
vn 0.7671 0.4178 -0.4868
vn 0.7895 0.3458 -0.5071
vn 0.4762 0.2070 0.8546
vn 0.7903 0.3519 0.5015
vn 0.0207 0.0046 0.9998
vn -0.6817 -0.2637 0.6824
vn -0.6380 -0.1812 0.7484
vn -0.8233 -0.2969 -0.4838
vn -0.8288 -0.3072 -0.4676
vn 0.0005 -0.0505 -0.9987
vn -0.1494 -0.1199 -0.9815
vn 0.7568 0.1996 -0.6225
vn 0.7430 0.1850 -0.6432
vn 0.5054 0.2461 0.8270
vn 0.7349 0.2973 0.6095
vn 0.1525 0.9405 0.3036
vn -0.1082 0.9133 0.3926
vn -0.1018 0.8808 0.4625
vn 0.1367 0.9906 0.0016
vn 0.0843 0.9585 0.2724
vn -0.1333 0.9810 -0.1413
vn 0.0724 0.9964 0.0438
vn -0.3876 0.9217 0.0176
vn -0.1320 0.9891 -0.0645
vn -0.3718 0.8716 0.3196
vn -0.3245 0.9442 0.0559
vn -0.3126 0.9063 0.2845
vn -0.1204 0.9673 0.2233
vn -0.1723 0.9747 0.1425
vn -0.1695 0.9656 0.1973
vn -0.0771 0.9872 0.1396
vn -0.0742 0.9781 0.1944
vn -0.1261 0.9855 0.1136
vn 0.0539 -0.9773 -0.2048
vn 0.1191 -0.9621 -0.2455
vn 0.1882 -0.9597 -0.2089
vn 0.1923 -0.9725 -0.1316
vn 0.1271 -0.9877 -0.0908
vn 0.0580 -0.9901 -0.1275
vn 0.5452 -0.4857 0.6833
vn 0.6205 -0.5181 0.5886
vn 0.5913 -0.5926 0.5470
vn -0.3603 -0.5862 0.7257
vn -0.3674 -0.6817 0.6327
vn -0.3607 -0.5861 0.7255
vn -0.9936 -0.1052 0.0414
vn -0.9676 -0.1907 0.1655
vn -0.9942 -0.1013 0.0352
vn -0.5439 0.4961 -0.6768
vn -0.6185 0.5226 -0.5868
vn -0.5384 0.4979 -0.6798
vn 0.3608 0.5846 -0.7267
vn 0.3658 0.6705 -0.6455
vn 0.3708 0.6562 -0.6573
vn 0.9948 0.0917 -0.0433
vn 0.9682 0.1881 -0.1649
vn 0.9652 0.2025 -0.1654
vn 0.7539 -0.4969 0.4298
vn 0.7438 -0.4696 0.4756
vn -0.3629 -0.6674 0.6503
vn -0.2964 -0.6137 0.7318
vn -0.9693 -0.1875 0.1591
vn -0.9312 0.2714 -0.2433
vn -0.5939 0.5880 -0.5492
vn -0.7112 0.5570 -0.4290
vn 0.5702 0.6652 -0.4820
vn 0.5798 0.6607 -0.4768
vn 0.9860 0.1318 -0.1025
vn 0.6403 0.7477 -0.1761
vn 0.4598 0.8027 -0.3798
vn 0.5792 0.7949 -0.1809
vn 0.1996 0.8744 -0.4423
vn 0.4825 0.7581 -0.4388
vn 0.0742 0.9802 -0.1836
vn 0.2456 0.8907 -0.3825
vn 0.2315 0.9696 0.0790
vn 0.1507 0.9708 -0.1866
vn 0.5145 0.8535 0.0830
vn 0.2697 0.9629 0.0122
vn 0.4840 0.8749 0.0152
vn 0.3230 0.9273 -0.1893
vn 0.4030 0.9043 -0.1409
vn 0.4258 0.8851 -0.1879
vn 0.3972 0.8870 -0.2356
vn 0.3458 0.9081 -0.2363
vn 0.3516 0.9254 -0.1416
vn -0.4464 -0.8750 0.1873
vn -0.4060 -0.8777 0.2546
vn -0.4142 -0.9021 0.1210
vn -0.3417 -0.9319 0.1220
vn -0.3014 -0.9345 0.1893
vn -0.3335 -0.9074 0.2556
vn 0.7299 -0.5058 -0.4598
vn 0.7476 -0.4759 -0.4632
vn 0.7297 -0.5057 -0.4602
vn 0.8343 -0.2311 0.5006
vn 0.8274 -0.2541 0.5008
vn 0.8341 -0.2309 0.5009
vn 0.1000 0.2759 0.9560
vn 0.0816 0.2245 0.9710
vn 0.1001 0.2759 0.9560
vn -0.7309 0.5038 0.4604
vn -0.7482 0.4747 0.4635
vn -0.7472 0.4734 0.4665
vn -0.8350 0.2293 -0.5002
vn -0.8283 0.2521 -0.5004
vn -0.8289 0.2549 -0.4980
vn -0.1000 -0.2759 -0.9560
vn -0.0825 -0.2262 -0.9706
vn -0.0781 -0.2244 -0.9714
vn 0.7465 -0.4749 -0.4661
vn 0.6719 -0.5081 -0.5389
vn 0.8281 -0.2567 0.4984
vn 0.7598 -0.4731 0.4460
vn 0.0746 0.0189 0.9970
vn 0.0849 0.0283 0.9960
vn -0.6816 0.4854 0.5476
vn -0.6840 0.4869 0.5432
vn -0.7704 0.4667 -0.4343
vn -0.7542 0.4844 -0.4433
vn -0.0774 -0.0127 -0.9969
vn 0.7008 -0.4603 -0.5450
vn 0.7418 -0.4100 -0.5306
vn 0.7481 -0.4932 0.4439
vn 0.6769 -0.5306 0.5102
vn 0.0468 -0.1125 0.9926
vn 0.0488 -0.1149 0.9922
vn -0.5775 0.5073 0.6397
vn -0.6754 0.7210 -0.1549
vn -0.0914 0.0924 -0.9915
vn -0.1639 -0.0312 -0.9860
vn -0.6688 -0.1374 0.7306
vn -0.4917 0.2077 0.8457
vn -0.8618 -0.2207 -0.4567
vn -0.8690 -0.2589 -0.4217
vn -0.2332 -0.0968 -0.9676
vn 0.8462 -0.3035 0.4380
vn 0.7456 -0.4243 0.5138
vn -0.1231 -0.5407 0.8322
vn 0.8008 -0.2793 -0.5298
vn 0.8456 -0.2025 -0.4940
vn 0.7338 -0.3218 0.5983
vn -0.0942 0.0183 -0.9954
vn -0.2034 0.0001 -0.9791
vn -0.8464 -0.1813 0.5007
vn -0.7754 -0.4016 -0.4873
vn 0.7989 0.3457 -0.4922
vn 0.3322 0.2212 0.9169
vn 0.5399 -0.4876 0.6861
vn 0.3613 0.5845 -0.7265
vn 0.9954 0.0879 -0.0375
vn -0.9166 0.2983 -0.2662
vn -0.7168 0.5526 -0.4252
vn 0.9866 0.1285 -0.1003
vn 0.0775 0.2230 0.9717
vn -0.7307 0.5038 0.4607
vn -0.8349 0.2291 -0.5005
vn -0.1001 -0.2759 -0.9560
vn 0.6716 -0.5057 -0.5415
vn -0.0842 -0.0302 -0.9960
vn -0.5698 0.5032 0.6497
vn -0.6757 0.7250 -0.1331
vt 0.757049 0.570314
vt 0.716027 0.577694
vt 0.711564 0.569748
vt 0.779326 0.609970
vt 0.752397 0.578153
vt 0.756143 0.649109
vt 0.770211 0.609864
vt 0.710657 0.648543
vt 0.751679 0.641163
vt 0.688381 0.608887
vt 0.715309 0.640704
vt 0.697496 0.608993
vt 0.741840 0.623648
vt 0.717593 0.609220
vt 0.725866 0.595210
vt 0.742136 0.595434
vt 0.750114 0.609637
vt 0.725571 0.623423
vt 0.965444 0.320934
vt 0.947081 0.359976
vt 0.944885 0.356126
vt 0.965043 0.399202
vt 0.987838 0.360184
vt 0.919855 0.398971
vt 0.944846 0.363802
vt 0.897461 0.359722
vt 0.940414 0.363780
vt 0.920256 0.320703
vt 0.938218 0.359930
vt 0.940453 0.356103
vt 0.703030 0.343961
vt 0.708417 0.379036
vt 0.704084 0.379550
vt 0.712286 0.343795
vt 0.707655 0.343576
vt 0.716831 0.344149
vt 0.712759 0.379454
vt 0.694038 0.345125
vt 0.690877 0.380753
vt 0.689564 0.345182
vt 0.699825 0.380549
vt 0.695352 0.381107
vt 0.698500 0.344675
vt 0.708634 0.415152
vt 0.704164 0.415533
vt 0.717032 0.380323
vt 0.713108 0.415528
vt 0.690918 0.416174
vt 0.699825 0.416284
vt 0.695370 0.416667
vt 0.708420 0.445964
vt 0.703925 0.446379
vt 0.717449 0.416399
vt 0.712933 0.446353
vt 0.690754 0.447215
vt 0.699592 0.447139
vt 0.695180 0.447551
vt 0.707356 0.460414
vt 0.702534 0.463969
vt 0.711895 0.460697
vt 0.717267 0.447337
vt 0.696217 0.462114
vt 0.691469 0.464143
vt 0.699980 0.461743
vt 0.779085 0.484793
vt 0.739541 0.471617
vt 0.739430 0.462503
vt 0.779637 0.530274
vt 0.771245 0.489444
vt 0.740536 0.553521
vt 0.771687 0.525814
vt 0.700882 0.531231
vt 0.740426 0.544407
vt 0.700329 0.485750
vt 0.708721 0.526579
vt 0.708279 0.490210
vt 0.739785 0.491704
vt 0.726008 0.516328
vt 0.725810 0.500039
vt 0.754156 0.515985
vt 0.753958 0.499696
vt 0.740181 0.524320
vt 0.845775 0.402505
vt 0.841285 0.359595
vt 0.845156 0.361753
vt 0.805615 0.335324
vt 0.806302 0.380508
vt 0.844402 0.312138
vt 0.841217 0.355164
vt 0.848892 0.355047
vt 0.845021 0.352890
vt 0.884562 0.379318
vt 0.883875 0.334135
vt 0.848960 0.359479
vt 0.766799 0.349291
vt 0.771167 0.398846
vt 0.767454 0.401151
vt 0.775741 0.349525
vt 0.771296 0.348184
vt 0.779732 0.351980
vt 0.775490 0.398188
vt 0.784130 0.353072
vt 0.779435 0.399811
vt 0.758505 0.353300
vt 0.763485 0.402871
vt 0.759077 0.402361
vt 0.762819 0.351802
vt 0.770585 0.444726
vt 0.767644 0.448190
vt 0.776900 0.446918
vt 0.783245 0.402114
vt 0.780141 0.445735
vt 0.764831 0.445332
vt 0.760236 0.447878
vt 0.687307 0.695335
vt 0.659846 0.726702
vt 0.678194 0.695296
vt 0.618884 0.734420
vt 0.664368 0.734617
vt 0.596285 0.694942
vt 0.623474 0.726545
vt 0.619224 0.655660
vt 0.605398 0.694981
vt 0.664708 0.655856
vt 0.623746 0.663575
vt 0.660118 0.663732
vt 0.625487 0.695068
vt 0.650002 0.681099
vt 0.658105 0.695209
vt 0.649880 0.709249
vt 0.633590 0.709178
vt 0.633712 0.681028
vt 0.715524 0.663790
vt 0.734333 0.702618
vt 0.693582 0.703294
vt 0.760706 0.663041
vt 0.736485 0.698744
vt 0.783947 0.701795
vt 0.740916 0.698671
vt 0.741044 0.706346
vt 0.743195 0.702471
vt 0.716822 0.742049
vt 0.762005 0.741299
vt 0.736612 0.706419
vt 0.735042 0.347007
vt 0.730385 0.383895
vt 0.730458 0.347041
vt 0.739696 0.347309
vt 0.734874 0.383626
vt 0.744401 0.347632
vt 0.739323 0.383820
vt 0.748120 0.384498
vt 0.743698 0.384260
vt 0.749021 0.347665
vt 0.752575 0.384367
vt 0.725943 0.347409
vt 0.725943 0.384342
vt 0.730726 0.422174
vt 0.734929 0.422209
vt 0.743242 0.422942
vt 0.739097 0.422625
vt 0.747577 0.422786
vt 0.752009 0.422253
vt 0.726431 0.422608
vt 0.735590 0.447109
vt 0.730885 0.447528
vt 0.743511 0.446775
vt 0.740364 0.449603
vt 0.748552 0.448401
vt 0.725211 0.452735
vt 0.707368 0.464148
vt 0.700878 0.466092
vt 0.710852 0.464740
vt 0.714374 0.463792
vt 0.770742 0.446403
vt 0.768156 0.449244
vt 0.774587 0.447792
vt 0.735652 0.448744
vt 0.731848 0.450069
vt 0.726622 0.454569
vt 0.783245 0.447634
vt 0.753524 0.347396
vt 0.752050 0.451948
vt 0.713547 0.465928
vt 0.739633 0.450505
s 1
usemtl Town_mat
f 2/1/1 7/2/2 1/3/3
f 3/4/4 8/5/5 2/1/1
f 4/6/6 9/7/7 3/4/4
f 5/8/8 10/9/9 4/6/6
f 6/10/10 11/11/11 5/8/8
f 1/3/3 12/12/12 6/10/10
f 16/13/13 18/14/14 13/15/15
f 8/5/5 13/15/15 7/2/2
f 9/7/7 14/16/16 8/5/5
f 10/9/9 15/17/17 9/7/7
f 11/11/11 16/13/13 10/9/9
f 12/12/12 17/18/18 11/11/11
f 7/2/2 18/14/14 12/12/12
f 15/17/17 13/15/15 14/16/16
f 2/19/19 20/20/20 19/21/19
f 6/22/21 20/20/20 1/23/20
f 5/24/22 21/25/21 6/22/21
f 4/26/23 22/27/22 5/24/22
f 3/28/24 23/29/23 4/26/23
f 2/19/19 24/30/24 3/28/24
f 19/31/25 26/32/26 25/33/27
f 21/34/28 26/32/29 20/35/30
f 22/36/31 27/37/31 21/34/31
f 23/38/32 28/39/33 22/40/34
f 23/38/35 30/41/36 29/42/37
f 24/43/38 25/33/39 30/41/36
f 25/33/27 32/44/40 31/45/41
f 27/37/42 32/44/43 26/32/29
f 28/46/31 33/47/31 27/37/31
f 29/42/44 34/48/45 28/39/33
f 29/42/37 36/49/46 35/50/47
f 30/41/36 31/45/39 36/49/46
f 31/45/41 38/51/48 37/52/49
f 33/47/50 38/51/51 32/44/43
f 34/53/31 39/54/52 33/47/31
f 35/50/53 40/55/54 34/48/45
f 35/50/47 42/56/55 41/57/56
f 36/49/46 37/52/57 42/56/55
f 37/52/49 43/58/58 77/59/59
f 38/51/51 44/60/60 43/58/61
f 40/61/62 44/60/63 39/54/52
f 40/55/54 118/62/64 119/63/65
f 41/57/56 78/64/66 118/62/67
f 37/52/57 78/64/66 42/56/55
f 46/65/68 51/66/69 45/67/70
f 47/68/71 52/69/72 46/65/68
f 48/70/73 53/71/74 47/68/71
f 49/72/75 54/73/76 48/70/73
f 50/74/77 55/75/78 49/72/75
f 45/67/70 56/76/79 50/74/77
f 57/77/80 61/78/81 62/79/82
f 52/69/72 57/77/80 51/66/69
f 52/69/72 59/80/83 58/81/84
f 54/73/76 59/80/83 53/71/74
f 55/75/78 60/82/85 54/73/76
f 56/76/79 61/78/81 55/75/78
f 51/66/69 62/79/82 56/76/79
f 58/81/84 60/82/85 57/77/80
f 46/83/86 64/84/87 63/85/86
f 50/86/88 64/84/87 45/87/87
f 49/88/89 65/89/88 50/86/88
f 49/88/89 67/90/90 66/91/89
f 47/92/91 67/90/90 48/93/90
f 47/92/91 63/85/86 68/94/91
f 63/95/92 70/96/93 69/97/94
f 65/98/95 70/96/96 64/99/97
f 66/100/98 71/101/99 65/98/100
f 67/102/101 72/103/102 66/100/103
f 67/104/104 74/105/105 73/106/106
f 68/107/107 69/97/108 74/105/109
f 69/97/94 76/108/110 75/109/111
f 71/101/112 76/108/113 70/96/96
f 72/103/114 77/110/115 71/101/99
f 73/111/116 78/112/117 72/103/102
f 73/106/106 117/113/118 118/114/119
f 69/97/108 117/113/120 74/105/109
f 79/115/121 86/116/122 85/117/123
f 81/118/124 86/116/122 80/119/125
f 82/120/126 87/121/127 81/118/124
f 83/122/128 88/123/129 82/120/126
f 84/124/130 89/125/131 83/122/128
f 79/115/121 90/126/132 84/124/130
f 94/127/133 96/128/134 91/129/135
f 85/117/123 92/130/136 91/129/135
f 87/121/127 92/130/136 86/116/122
f 88/123/129 93/131/137 87/121/127
f 88/123/129 95/132/138 94/127/133
f 90/126/132 95/132/138 89/125/131
f 85/117/123 96/128/134 90/126/132
f 93/131/137 91/129/135 92/130/136
f 79/133/139 97/134/140 80/135/140
f 84/136/141 98/137/139 79/133/139
f 83/138/142 99/139/141 84/136/141
f 83/138/142 101/140/143 100/141/142
f 81/142/144 101/140/143 82/143/143
f 81/142/144 97/134/140 102/144/144
f 98/145/145 103/146/146 97/147/147
f 99/148/148 104/149/149 98/145/150
f 100/150/151 105/151/152 99/148/153
f 100/150/154 107/152/155 106/153/156
f 101/154/157 108/155/158 107/152/159
f 102/156/160 103/146/161 108/157/162
f 104/149/163 109/158/164 103/146/146
f 105/151/165 110/159/166 104/149/149
f 105/151/152 112/160/167 111/161/168
f 106/153/156 113/162/169 112/160/170
f 107/152/159 114/163/171 113/162/172
f 103/146/161 114/164/173 108/157/162
f 109/158/164 116/165/174 115/166/175
f 111/161/176 116/165/177 110/159/166
f 111/161/168 117/167/178 75/168/179
f 113/162/169 117/167/180 112/160/170
f 114/163/171 118/169/181 113/162/172
f 114/164/173 115/166/182 119/170/183
f 77/59/59 120/171/184 124/172/185
f 43/58/61 121/173/186 120/171/187
f 119/174/183 121/173/188 44/60/63
f 75/109/111 123/175/189 122/176/190
f 76/108/113 124/177/185 123/175/191
f 115/166/175 126/178/192 125/179/193
f 75/168/111 126/178/194 116/165/177
f 119/170/183 125/179/195 127/180/196
f 2/1/1 8/5/5 7/2/2
f 3/4/4 9/7/7 8/5/5
f 4/6/6 10/9/9 9/7/7
f 5/8/8 11/11/11 10/9/9
f 6/10/10 12/12/12 11/11/11
f 1/3/3 7/2/2 12/12/12
f 16/13/13 17/18/18 18/14/14
f 8/5/5 14/16/16 13/15/15
f 9/7/7 15/17/17 14/16/16
f 10/9/9 16/13/13 15/17/17
f 11/11/11 17/18/18 16/13/13
f 12/12/12 18/14/14 17/18/18
f 7/2/2 13/15/15 18/14/14
f 15/17/17 16/13/13 13/15/15
f 2/19/19 1/23/20 20/20/20
f 6/22/21 21/25/21 20/20/20
f 5/24/22 22/27/22 21/25/21
f 4/26/23 23/29/23 22/27/22
f 3/28/24 24/30/24 23/29/23
f 2/19/19 19/21/19 24/30/24
f 19/31/25 20/35/197 26/32/26
f 21/34/28 27/37/42 26/32/29
f 22/36/31 28/46/31 27/37/31
f 23/38/32 29/42/44 28/39/33
f 23/38/35 24/43/38 30/41/36
f 24/43/38 19/31/39 25/33/39
f 25/33/27 26/32/26 32/44/40
f 27/37/42 33/47/50 32/44/43
f 28/46/31 34/53/31 33/47/31
f 29/42/44 35/50/53 34/48/45
f 29/42/37 30/41/36 36/49/46
f 30/41/36 25/33/39 31/45/39
f 31/45/41 32/44/40 38/51/48
f 33/47/50 39/54/198 38/51/51
f 34/53/31 40/61/62 39/54/52
f 35/50/53 41/57/199 40/55/54
f 35/50/47 36/49/46 42/56/55
f 36/49/46 31/45/39 37/52/57
f 37/52/49 38/51/48 43/58/58
f 38/51/51 39/54/198 44/60/60
f 40/61/62 119/174/183 44/60/63
f 40/55/54 41/57/199 118/62/64
f 41/57/56 42/56/55 78/64/66
f 37/52/57 77/59/200 78/64/66
f 46/65/68 52/69/72 51/66/69
f 47/68/71 53/71/74 52/69/72
f 48/70/73 54/73/76 53/71/74
f 49/72/75 55/75/78 54/73/76
f 50/74/77 56/76/79 55/75/78
f 45/67/70 51/66/69 56/76/79
f 57/77/80 60/82/85 61/78/81
f 52/69/72 58/81/84 57/77/80
f 52/69/72 53/71/74 59/80/83
f 54/73/76 60/82/85 59/80/83
f 55/75/78 61/78/81 60/82/85
f 56/76/79 62/79/82 61/78/81
f 51/66/69 57/77/80 62/79/82
f 58/81/84 59/80/83 60/82/85
f 46/83/86 45/87/87 64/84/87
f 50/86/88 65/89/88 64/84/87
f 49/88/89 66/91/89 65/89/88
f 49/88/89 48/93/90 67/90/90
f 47/92/91 68/94/91 67/90/90
f 47/92/91 46/83/86 63/85/86
f 63/95/92 64/99/201 70/96/93
f 65/98/95 71/101/112 70/96/96
f 66/100/98 72/103/114 71/101/99
f 67/102/101 73/111/116 72/103/102
f 67/104/104 68/107/202 74/105/105
f 68/107/107 63/95/203 69/97/108
f 69/97/94 70/96/93 76/108/110
f 71/101/112 77/110/59 76/108/113
f 72/103/114 78/112/204 77/110/115
f 73/111/116 118/181/205 78/112/117
f 73/106/106 74/105/105 117/113/118
f 69/97/108 75/109/206 117/113/120
f 79/115/121 80/119/125 86/116/122
f 81/118/124 87/121/127 86/116/122
f 82/120/126 88/123/129 87/121/127
f 83/122/128 89/125/131 88/123/129
f 84/124/130 90/126/132 89/125/131
f 79/115/121 85/117/123 90/126/132
f 94/127/133 95/132/138 96/128/134
f 85/117/123 86/116/122 92/130/136
f 87/121/127 93/131/137 92/130/136
f 88/123/129 94/127/133 93/131/137
f 88/123/129 89/125/131 95/132/138
f 90/126/132 96/128/134 95/132/138
f 85/117/123 91/129/135 96/128/134
f 93/131/137 94/127/133 91/129/135
f 79/133/139 98/137/139 97/134/140
f 84/136/141 99/139/141 98/137/139
f 83/138/142 100/141/142 99/139/141
f 83/138/142 82/143/143 101/140/143
f 81/142/144 102/144/144 101/140/143
f 81/142/144 80/135/140 97/134/140
f 98/145/145 104/149/163 103/146/146
f 99/148/148 105/151/165 104/149/149
f 100/150/151 106/153/207 105/151/152
f 100/150/154 101/154/208 107/152/155
f 101/154/157 102/182/209 108/155/158
f 102/156/160 97/147/210 103/146/161
f 104/149/163 110/159/211 109/158/164
f 105/151/165 111/161/176 110/159/166
f 105/151/152 106/153/207 112/160/167
f 106/153/156 107/152/155 113/162/169
f 107/152/159 108/155/158 114/163/171
f 103/146/161 109/158/212 114/164/173
f 109/158/164 110/159/211 116/165/174
f 111/161/176 75/168/111 116/165/177
f 111/161/168 112/160/167 117/167/178
f 113/162/169 118/169/213 117/167/180
f 114/163/171 119/183/214 118/169/181
f 114/164/173 109/158/212 115/166/182
f 77/59/59 43/58/58 120/171/184
f 43/58/61 44/60/60 121/173/186
f 119/174/183 127/184/196 121/173/188
f 75/109/111 76/108/110 123/175/189
f 76/108/113 77/110/59 124/177/185
f 115/166/175 116/165/174 126/178/192
f 75/168/111 122/185/190 126/178/194
f 119/170/183 115/166/182 125/179/195
