# Blender 4.2.3 LTS
# www.blender.org
mtllib pokemon-center.mtl
g Pokémon_Center.003_Mesh
v 17.000002 30.800001 20.054688
v 14.000000 30.800001 26.076168
v 17.000002 9.799999 20.054689
v 14.000000 9.799999 26.076170
v 17.000002 0.799999 20.054689
v 14.000000 0.799999 26.076170
v -10.000000 30.800001 26.068356
v -14.000000 30.800001 26.076168
v -10.000000 9.799999 26.068357
v -14.000000 9.799999 26.076170
v -10.000000 0.799999 26.068357
v -14.000000 0.799999 26.076170
v 30.708982 30.800001 20.054688
v 17.000002 30.800001 20.054688
v 30.708982 9.799999 20.054689
v 17.000002 9.799999 20.054689
v 30.708982 0.799999 20.054689
v 17.000002 0.799999 20.054689
v -14.000000 30.800001 26.076168
v -16.999998 30.800001 20.054688
v -14.000000 9.799999 26.076170
v -16.999998 9.799999 20.054689
v -14.000000 0.799999 26.076170
v -16.999998 0.799999 20.054689
v 14.000000 30.800001 26.076168
v 10.000000 30.800001 26.068356
v 14.000000 9.799999 26.076170
v 10.000000 9.799999 26.068357
v 14.000000 0.799999 26.076170
v 10.000000 0.799999 26.068357
v 30.708982 30.799997 -27.945312
v 38.044922 30.837107 -20.582031
v 30.708982 9.799995 -27.945311
v 38.044922 9.799995 -20.582029
v 30.708982 0.799995 -27.945311
v 38.044922 0.799995 -20.582029
v 38.044922 30.837107 -20.582031
v 37.955078 30.762892 12.072268
v 38.044922 9.799995 -20.582029
v 37.955078 9.799999 12.072269
v 38.044922 0.799995 -20.582029
v 37.955078 0.799999 12.072270
v 37.955078 30.762892 12.072268
v 30.708982 30.800001 20.054688
v 37.955078 9.799999 12.072269
v 30.708982 9.799999 20.054689
v 37.955078 0.799999 12.072270
v 30.708982 0.799999 20.054689
v -16.999998 30.800001 20.054688
v -30.708979 30.800001 20.054688
v -16.999998 9.799999 20.054689
v -30.708979 9.799999 20.054689
v -16.999998 0.799999 20.054689
v -30.708979 0.799999 20.054689
v -30.708979 30.800001 20.054688
v -38.000000 30.762892 12.072268
v -30.708979 9.799999 20.054689
v -38.000000 9.799999 12.072269
v -30.708979 0.799999 20.054689
v -38.000000 0.799999 12.072270
v -38.000000 30.762892 12.072268
v -38.000000 30.837107 -20.582031
v -38.000000 9.799999 12.072269
v -38.000000 9.799995 -20.582029
v -38.000000 0.799999 12.072270
v -38.000000 0.799995 -20.582029
v -38.000000 30.837107 -20.582031
v -30.708979 30.799997 -27.945312
v -38.000000 9.799995 -20.582029
v -30.708979 9.799995 -27.945311
v -38.000000 0.799995 -20.582029
v -30.708979 0.799995 -27.945311
v 17.000002 35.592972 20.054688
v 17.000002 30.800001 20.054688
v 30.708982 30.800001 20.054688
v 30.708982 35.592972 20.054688
v -10.000000 0.950388 1.085938
v -10.000000 30.799999 1.085936
v -10.000000 30.800001 19.058586
v -10.000000 0.799999 19.058588
v 10.000000 0.950388 1.085938
v 10.000000 0.799999 19.058588
v 10.000000 30.800001 19.058586
v 10.000000 30.799999 1.085936
v -10.000000 0.799999 19.058588
v 10.000000 0.799999 19.058588
v 10.000000 0.950388 1.085938
v -10.000000 0.950388 1.085938
v -10.000000 0.799999 19.058588
v -10.000000 30.800001 19.058586
v -10.000000 30.800001 26.068356
v -10.000000 9.799999 26.068357
v 10.000000 0.799999 19.058588
v 10.000000 9.799999 26.068357
v 10.000000 30.800001 26.068356
v 10.000000 30.800001 19.058586
v -10.000000 0.950388 1.085938
v 10.000000 0.950388 1.085938
v 10.000000 30.799999 1.085936
v -10.000000 30.799999 1.085936
v 38.044922 30.837107 -20.582031
v 30.708982 30.799997 -27.945312
v 30.708982 35.592968 -27.945312
v 38.044922 35.592968 -20.582031
v 37.955078 30.762892 12.072268
v 38.044922 30.837107 -20.582031
v 38.044922 35.592968 -20.582031
v 37.955078 35.592968 12.072268
v 30.708982 30.800001 20.054688
v 37.955078 30.762892 12.072268
v 37.955078 35.592968 12.072268
v 30.708982 35.592972 20.054688
v -30.708979 30.800001 20.054688
v -16.999998 30.800001 20.054688
v -16.999998 35.592972 20.054688
v -30.708979 35.592972 20.054688
v -38.000000 30.762892 12.072268
v -30.708979 30.800001 20.054688
v -30.708979 35.592972 20.054688
v -38.000000 35.592968 12.072268
v -38.000000 30.837107 -20.582031
v -38.000000 30.762892 12.072268
v -38.000000 35.592968 12.072268
v -38.000000 35.592968 -20.582031
v -30.708979 30.799997 -27.945312
v -38.000000 30.837107 -20.582031
v -38.000000 35.592968 -20.582031
v -30.708979 35.592968 -27.945312
v 10.000000 0.799999 26.068357
v 10.000000 9.799999 26.068357
v 10.000000 0.799999 19.058588
v -10.000000 9.799999 26.068357
v -10.000000 0.799999 26.068357
v -10.000000 0.799999 19.058588
v -10.000000 35.592972 20.054688
v -10.000000 35.592972 26.068356
v 10.000000 35.592972 20.054688
v 10.000000 35.592972 26.068356
v 17.000002 35.592972 20.054688
v 14.000000 35.592972 26.076168
v 30.708982 38.122269 21.316406
v 28.185553 49.799999 12.072267
v 8.000000 38.116409 21.316406
v 8.000000 49.799999 12.072267
v -8.000000 38.116409 21.316406
v -8.000000 49.799999 12.072267
v -11.005860 57.299995 -18.582035
v -10.980470 57.299999 10.072267
v 0.000000 62.299999 -18.582035
v 0.000000 62.299999 10.072266
v 11.005860 57.299995 -18.582035
v 11.005860 57.299999 10.072267
v 8.000000 49.799995 -20.609385
v -8.037109 49.799995 -20.556646
v -8.000000 49.799999 12.072267
v 8.000000 49.799999 12.072267
v -8.037109 49.799995 -20.556646
v -28.185549 49.798046 -20.556646
v -28.185549 49.799999 12.072267
v -8.000000 49.799999 12.072267
v 8.000000 49.799995 -20.609385
v 8.000000 38.122269 -29.259769
v -7.988281 38.122269 -29.207031
v -8.037109 49.799995 -20.556646
v 8.000000 38.122269 -29.259769
v 8.000000 35.587109 -27.998051
v -8.011719 35.587109 -27.945312
v -7.988281 38.122269 -29.207031
v -8.037109 49.799995 -20.556646
v -7.988281 38.122269 -29.207031
v -30.708979 38.122269 -29.207031
v -28.185549 49.798046 -20.556646
v -7.988281 38.122269 -29.207031
v -8.011719 35.587109 -27.945312
v -30.708979 35.587109 -27.945312
v -30.708979 38.122269 -29.207031
v 8.000000 35.592972 20.054688
v 30.708982 35.592972 20.054688
v 30.708982 38.122269 21.316406
v 8.000000 38.116409 21.316406
v -8.000000 35.592972 20.054688
v 8.000000 35.592972 20.054688
v 8.000000 38.116409 21.316406
v -8.000000 38.116409 21.316406
v -16.999998 35.592972 20.054688
v -16.999998 30.800001 20.054688
v -14.000000 30.800001 26.076168
v -14.000000 35.592972 26.076168
v -30.708979 38.122269 21.316406
v -8.000000 38.116409 21.316406
v -8.000000 49.799999 12.072267
v -28.185549 49.799999 12.072267
v -39.541019 38.122269 -20.582031
v -39.541019 38.122269 12.072268
v -28.185549 49.799999 12.072267
v -28.185549 49.798046 -20.556646
v 30.708982 38.122269 -29.207031
v 8.000000 38.122269 -29.259769
v 8.000000 49.799995 -20.609385
v 28.185553 49.801945 -20.556646
v 38.044922 35.587109 -20.582031
v 30.708982 35.587109 -27.945312
v 30.708982 38.122269 -29.207031
v 39.630859 38.122269 -20.582031
v 37.955078 35.587109 12.072268
v 38.044922 35.587109 -20.582031
v 39.630859 38.122269 -20.582031
v 39.541019 38.122269 12.072268
v 30.708982 35.592972 20.054688
v 37.955078 35.587109 12.072268
v 39.541019 38.122269 12.072268
v 30.708982 38.122269 21.316406
v -38.000000 35.587109 12.072268
v -30.708979 35.592972 20.054688
v -30.708979 38.122269 21.316406
v -39.541019 38.122269 12.072268
v -38.000000 35.587109 -20.582031
v -38.000000 35.587109 12.072268
v -39.541019 38.122269 12.072268
v -39.541019 38.122269 -20.582031
v -30.708979 35.587109 -27.945312
v -38.000000 35.587109 -20.582031
v -39.541019 38.122269 -20.582031
v -30.708979 38.122269 -29.207031
v 30.708982 35.587109 -27.945312
v 8.000000 35.587109 -27.998051
v 8.000000 38.122269 -29.259769
v 30.708982 38.122269 -29.207031
v -30.708979 35.592972 20.054688
v -8.000000 35.592972 20.054688
v -8.000000 38.116409 21.316406
v -30.708979 38.122269 21.316406
v -16.999998 35.592972 20.054688
v -14.000000 35.592972 26.076168
v -10.000000 35.592972 26.068356
v -10.000000 35.592972 20.054688
v 14.000000 35.592972 26.076168
v 14.000000 30.800001 26.076168
v 17.000002 30.800001 20.054688
v 17.000002 35.592972 20.054688
v -14.000000 35.592972 26.076168
v -14.000000 30.800001 26.076168
v -10.000000 30.800001 26.068356
v -10.000000 35.592972 26.068356
v -10.000000 35.592972 26.068356
v -10.000000 30.800001 26.068356
v 10.000000 30.800001 26.068356
v 10.000000 35.592972 26.068356
v 39.541019 38.122269 12.072268
v 39.630859 38.122269 -20.582031
v 28.185553 49.801945 -20.556646
v 28.185553 49.799999 12.072267
v 10.000000 30.800001 26.068356
v 14.000000 30.800001 26.076168
v 14.000000 35.592972 26.076168
v 10.000000 35.592972 26.068356
v 14.000000 50.018745 -18.582035
v 11.005860 57.299995 -18.582035
v 11.005860 57.299999 10.072267
v 14.000000 50.018749 10.072267
v -11.005860 57.299995 -18.582035
v -14.000000 50.018745 -18.582035
v -14.000000 50.018749 10.072267
v -10.980470 57.299999 10.072267
v 28.185553 49.799999 12.072267
v 28.185553 49.801945 -20.556646
v 8.000000 49.799995 -20.609385
v 8.000000 49.799999 12.072267
v -11.005860 57.299995 -18.582035
v 0.000000 62.299999 -18.582035
v 0.000000 50.018745 -18.582035
v 28.185553 49.799999 12.072267
v 30.708982 38.122269 21.316406
v 39.541019 38.122269 12.072268
v -28.185549 49.799999 12.072267
v -39.541019 38.122269 12.072268
v -30.708979 38.122269 21.316406
v -28.185549 49.798046 -20.556646
v -30.708979 38.122269 -29.207031
v -39.541019 38.122269 -20.582031
v 28.185553 49.801945 -20.556646
v 39.630859 38.122269 -20.582031
v 30.708982 38.122269 -29.207031
v 14.000000 50.018749 10.072267
v 11.005860 57.299999 10.072267
v 0.000000 50.018749 10.072267
v -10.980470 57.299999 10.072267
v -14.000000 50.018749 10.072267
v 0.000000 50.018749 10.072267
v 0.000000 62.299999 10.072266
v -10.980470 57.299999 10.072267
v 0.000000 50.018749 10.072267
v 11.005860 57.299999 10.072267
v 0.000000 62.299999 10.072266
v 0.000000 50.018749 10.072267
v 11.005860 57.299995 -18.582035
v 14.000000 50.018745 -18.582035
v 0.000000 50.018745 -18.582035
v -14.000000 50.018745 -18.582035
v -11.005860 57.299995 -18.582035
v 0.000000 50.018745 -18.582035
v 0.000000 62.299999 -18.582035
v 11.005860 57.299995 -18.582035
v 0.000000 50.018745 -18.582035
v 8.000000 50.799999 12.072267
v 8.000000 38.438675 22.072266
v 30.000002 38.438675 22.072266
v 28.000002 50.799999 12.072267
v -8.000000 50.799999 12.072267
v -8.000000 38.438675 22.072266
v 8.000000 38.438675 22.072266
v 8.000000 50.799999 12.072267
v 28.000002 50.799999 12.072267
v 41.000000 38.438671 12.072268
v 41.000000 38.438671 -20.582031
v 28.000002 50.799995 -20.580084
v -41.000000 38.438671 12.072268
v -27.999998 50.799999 12.072267
v -27.999998 50.799995 -20.580084
v -41.000000 38.438671 -20.582031
v -29.999998 38.438675 22.072266
v -8.000000 38.438675 22.072266
v -8.000000 50.799999 12.072267
v -27.999998 50.799999 12.072267
v 30.000002 38.438675 22.072266
v 41.000000 38.438671 12.072268
v 28.000002 50.799999 12.072267
v -41.000000 38.438671 12.072268
v -29.999998 38.438675 22.072266
v -27.999998 50.799999 12.072267
vn 0.8951 -0.0000 0.4459
vn -0.0000 -0.0000 1.0000
vn -0.8951 -0.0000 0.4459
vn 0.7091 -0.0000 -0.7051
vn 0.7090 -0.0000 -0.7052
vn 1.0000 -0.0000 0.0019
vn 0.7404 -0.0000 0.6721
vn -0.7386 -0.0000 0.6742
vn -0.7384 -0.0000 0.6744
vn -1.0000 -0.0000 -0.0000
vn -0.7111 -0.0000 -0.7031
vn -0.7110 -0.0000 -0.7032
vn 1.0000 -0.0000 0.0020
vn 1.0000 0.0007 0.0019
vn -0.0062 1.0000 0.0028
vn 0.0039 1.0000 0.0010
vn -0.0000 1.0000 -0.0000
vn 1.0000 -0.0019 0.0006
vn 1.0000 0.0004 0.0019
vn 0.7090 -0.0001 -0.7052
vn 1.0000 0.0006 0.0023
vn 1.0000 -0.0001 0.0020
vn -0.7387 -0.0000 0.6741
vn -0.7387 0.0001 0.6741
vn -0.7108 0.0003 -0.7034
vn -0.7109 -0.0002 -0.7033
vn -0.7109 -0.0000 -0.7033
vn -0.0000 0.6214 0.7835
vn -0.0000 0.6213 0.7835
vn -0.7187 0.6953 -0.0000
vn 0.7206 0.6933 -0.0000
vn 0.0018 0.5940 -0.8045
vn 0.0005 0.5980 -0.8015
vn 0.0020 0.5959 -0.8030
vn 0.0019 -0.4459 -0.8951
vn 0.0019 -0.4456 -0.8952
vn 0.0019 -0.4457 -0.8952
vn 0.0020 0.5956 -0.8032
vn 0.0018 0.5960 -0.8029
vn 0.0019 0.5959 -0.8031
vn 0.0020 -0.4457 -0.8952
vn 0.0020 -0.4456 -0.8952
vn 0.0002 -0.4476 0.8942
vn -0.0001 -0.4476 0.8942
vn -0.0000 -0.4472 0.8944
vn -0.0006 0.6211 0.7838
vn 0.0004 0.6213 0.7835
vn 0.0001 0.6214 0.7835
vn -0.7186 0.6954 0.0010
vn 0.0023 0.5957 -0.8032
vn 0.0017 0.5958 -0.8031
vn 0.0019 0.5958 -0.8031
vn 0.6378 -0.3991 -0.6587
vn 0.6380 -0.3988 -0.6587
vn 0.6379 -0.3990 -0.6587
vn 0.8475 -0.5308 0.0015
vn 0.8473 -0.5311 0.0020
vn 0.8473 -0.5311 0.0019
vn 0.7028 -0.3172 0.6367
vn 0.7025 -0.3187 0.6364
vn 0.7026 -0.3185 0.6364
vn -0.6618 -0.4021 0.6328
vn -0.6616 -0.4023 0.6328
vn -0.6617 -0.4021 0.6328
vn -0.8545 -0.5194 -0.0005
vn -0.8548 -0.5190 -0.0000
vn -0.6700 -0.3304 -0.6648
vn -0.6708 -0.3296 -0.6644
vn -0.6707 -0.3296 -0.6645
vn 0.0021 -0.4456 -0.8953
vn -0.0000 -0.4468 0.8946
vn -0.0006 -0.4465 0.8948
vn -0.0001 -0.4468 0.8946
vn 0.0001 -0.0006 1.0000
vn 0.7215 0.6924 -0.0032
vn 0.7199 0.6940 0.0060
vn 0.7220 0.6919 -0.0010
vn -0.0002 0.0009 1.0000
vn -0.0007 -0.0015 1.0000
vn 0.7229 0.6879 0.0653
vn 0.9249 0.3803 -0.0000
vn -0.7311 0.6645 -0.1545
vn -0.9239 0.3826 0.0003
vn -0.7176 0.6965 0.0004
vn -0.0000 1.0000 0.0001
vn -0.0000 -0.0000 -1.0000
vn 0.5922 0.5746 0.5649
vn -0.5922 0.5746 0.5649
vn -0.5779 0.5623 -0.5915
vn 0.5740 0.5638 -0.5938
vn 0.0042 0.6221 0.7829
vn 0.1984 -0.3161 0.9278
vn 0.0048 0.6224 0.7827
vn -0.0069 0.6236 0.7817
vn 0.8449 -0.0993 0.5257
vn 0.5990 0.2816 0.7496
vn -0.4197 0.3032 0.8555
vn -0.9483 -0.0505 0.3133
vn -0.8952 -0.0000 0.4457
vn 0.0029 0.6217 0.7833
vn -0.7891 0.0805 0.6090
vn 0.7405 -0.0000 0.6720
vn 0.7405 -0.0000 0.6721
vn -0.7386 -0.0000 0.6741
vn -0.0009 -0.0000 -1.0000
vn 0.0004 -0.0004 -1.0000
vn -0.0000 -0.0010 -1.0000
vn -0.0000 -1.0000 -0.0000
vn -0.0008 -1.0000 -0.0004
vn -0.0019 -1.0000 0.0003
vn 1.0000 0.0017 0.0010
vn 1.0000 -0.0007 0.0018
vn -0.0023 1.0000 0.0003
vn 1.0000 -0.0015 0.0012
vn 0.7089 0.0006 -0.7053
vn 0.7090 -0.0004 -0.7052
vn -0.7387 0.0002 0.6741
vn -0.7386 -0.0003 0.6742
vn -0.7109 -0.0001 -0.7033
vn -0.0001 1.0000 -0.0001
vn 0.0016 0.5969 -0.8023
vn 0.0020 0.5956 -0.8033
vn 0.0001 -0.4421 -0.8970
vn 0.0018 -0.4464 -0.8948
vn 0.0010 0.5968 -0.8024
vn 0.0020 0.5960 -0.8030
vn 0.0021 0.5950 -0.8037
vn 0.0012 -0.4442 -0.8959
vn 0.0001 -0.4468 0.8946
vn 0.0006 -0.4465 0.8948
vn -0.0000 0.6212 0.7837
vn -0.0001 0.6212 0.7837
vn -0.0004 0.6211 0.7837
vn -0.7187 0.6953 -0.0008
vn -0.7188 0.6953 -0.0000
vn -0.7177 0.6963 0.0023
vn 0.0022 0.5956 -0.8033
vn 0.6690 -0.3309 -0.6656
vn 0.6688 -0.3317 -0.6653
vn 0.6688 -0.3318 -0.6653
vn 0.8477 -0.5304 0.0014
vn 0.6594 -0.4128 0.6283
vn 0.6594 -0.4127 0.6284
vn 0.6597 -0.4122 0.6284
vn -0.6994 -0.3189 0.6397
vn -0.6995 -0.3187 0.6397
vn -0.6995 -0.3186 0.6397
vn -0.8547 -0.5191 -0.0002
vn -0.6432 -0.3900 -0.6589
vn -0.6429 -0.3901 -0.6592
vn -0.0002 -0.4476 0.8942
vn 0.0001 -0.4476 0.8942
vn 0.0002 0.0009 1.0000
vn 0.0007 -0.0015 1.0000
vn 0.7192 0.6947 0.0034
vn 0.7193 0.6947 0.0010
vn 0.7193 0.6947 0.0009
vn -0.0001 -0.0006 1.0000
vn 0.7336 0.6618 -0.1544
vn 0.7207 0.6933 -0.0001
vn -0.7222 0.6887 0.0651
vn -0.9251 0.3798 -0.0004
vn -0.9251 0.3797 -0.0002
vn -0.0001 1.0000 -0.0000
vn -0.0029 0.6217 0.7833
vn 0.7908 0.0809 0.6067
vn -0.0025 0.6216 0.7833
vn 0.4227 0.3021 0.8544
vn 0.8952 -0.0000 0.4457
vn 0.9483 -0.0505 0.3133
vn -0.8432 -0.0995 0.5283
vn -0.5990 0.2816 0.7496
vn -0.0042 0.6221 0.7829
vn -0.1957 -0.3148 0.9288
vn -0.0000 -0.0009 -1.0000
vn 0.0005 0.0007 -1.0000
vn 0.0006 0.0001 -1.0000
vn 0.0005 -0.0002 -1.0000
vn -0.0005 -0.0004 -1.0000
vn -0.0009 -0.0003 -1.0000
vn -0.0009 -0.0001 -1.0000
vn -0.0000 0.0006 -1.0000
vn -0.0003 -0.0005 -1.0000
vn 0.0006 -1.0000 -0.0000
vn -0.0006 -1.0000 -0.0006
vn -0.0010 -1.0000 0.0017
vn 0.0020 -1.0000 -0.0000
vn -0.0000 -1.0000 0.0001
vn 0.0019 -1.0000 -0.0002
vt 0.140625 -0.187500
vt 0.073242 -0.187500
vt 0.140625 -0.781250
vt 0.073242 -0.781250
vt 0.140625 -1.000000
vt 0.073242 -1.000000
vt 0.609375 -0.187500
vt 0.589844 -0.187500
vt 0.609375 -0.781250
vt 0.589844 -0.781250
vt 0.609375 -1.000000
vt 0.589844 -1.000000
vt -0.682617 -0.187500
vt -0.390625 -0.187500
vt -0.682617 -0.781250
vt -0.390625 -0.781250
vt -0.682617 -0.984375
vt -0.390625 -0.984375
vt -0.479492 -0.187500
vt -0.492188 -0.187500
vt -0.479492 -0.781250
vt -0.492188 -0.781250
vt -0.479492 -0.984375
vt -0.492188 -0.984375
vt 0.015625 -0.187500
vt 0.015625 -0.781250
vt 0.015625 -1.000000
vt 0.375000 -0.187500
vt 0.187500 -0.187500
vt 0.375000 -0.781250
vt 0.187500 -0.781250
vt 0.375000 -1.000000
vt 0.187500 -1.000000
vt -0.569336 -0.187500
vt -0.803711 -0.015625
vt -0.569336 -0.015625
vt 0.984375 -0.984375
vt 0.890625 -0.984375
vt 0.984375 -0.890625
vt 0.890625 -0.890625
vt 0.606445 -0.179688
vt 0.559570 -0.773438
vt 0.606445 -0.992188
vt 0.561523 -0.776367
vt 0.608398 -0.182617
vt 0.608398 -0.995117
vt 0.125000 -0.192383
vt 0.325195 0.000000
vt 0.125000 0.000000
vt 0.325195 -0.192383
vt -0.803711 -0.187500
vt 0.561523 -0.995117
vt 0.559570 -0.992188
vt -0.890625 -0.375000
vt -0.984375 -0.375000
vt -0.890625 -0.453125
vt -0.984375 -0.453125
vt 0.015625 -0.828125
vt 0.015625 -0.359375
vt 0.109375 -0.828125
vt 0.109375 -0.359375
vt 0.406250 -0.218750
vt 0.406250 -0.281250
vt 0.015625 -0.218750
vt 0.015625 -0.281250
vt -0.515625 -0.171875
vt -0.984375 -0.109375
vt -0.984375 -0.171875
vt 0.031250 -0.859375
vt 0.093750 -0.687500
vt 0.031250 -0.687500
vt 0.093750 -0.859375
vt -0.984375 -0.765625
vt -0.890625 -0.578125
vt -0.984375 -0.578125
vt -0.890625 -0.765625
vt 0.062500 -0.125000
vt 0.437500 -0.171875
vt 0.437500 -0.125000
vt 0.062500 -0.171875
vt -0.515625 -0.109375
vt 0.299805 -0.974609
vt 0.299805 -0.900391
vt 0.000000 -0.950195
vt 0.062500 -0.359375
vt 0.562500 -0.859375
vt 0.265625 -0.359375
vt 0.562500 -0.359375
vt 0.515625 -0.859375
vt 0.984375 -0.359375
vt 0.515625 -0.359375
vt 0.140625 -0.859375
vt 0.359375 -0.359375
vt 0.140625 -0.359375
vt 0.359375 -0.859375
vt 0.265625 -0.859375
vt 0.343750 -0.859375
vt 0.250000 -0.375000
vt 0.296875 0.152344
vt 0.074409 0.179823
vt 0.077362 0.720718
vt 0.000000 0.000000
vt 0.289062 0.156250
vt 0.546875 0.000000
vt 0.400000 0.000000
vt 0.200000 0.216211
vt 0.200000 0.000000
vt 0.902214 0.046506
vt 0.971235 0.010851
vt 0.971235 0.104601
vt 0.559570 -0.179688
vt 0.561523 -0.182617
vt 0.984375 -0.859375
vt 0.082087 0.692814
vt 0.187500 0.164062
vt 0.459961 0.161133
vt 0.547852 0.199219
vt 0.400000 0.216211
s 0
g Pokémon_Center.003_pc_1
usemtl pc_1
f 1/1/1 2/2/1 3/3/1
f 2/2/1 4/4/1 3/3/1
f 3/3/1 4/4/1 5/5/1
f 4/4/1 6/6/1 5/5/1
f 7/7/2 8/8/2 9/9/2
f 8/8/2 10/10/2 9/9/2
f 9/9/2 10/10/2 11/11/2
f 10/10/2 12/12/2 11/11/2
f 13/13/2 14/14/2 15/15/2
f 14/14/2 16/16/2 15/15/2
f 15/15/2 16/16/2 17/17/2
f 16/16/2 18/18/2 17/17/2
f 19/19/3 20/20/3 21/21/3
f 20/20/3 22/22/3 21/21/3
f 21/21/3 22/22/3 23/23/3
f 22/22/3 24/24/3 23/23/3
f 25/2/2 26/25/2 27/4/2
f 26/25/2 28/26/2 27/4/2
f 27/4/2 28/26/2 29/6/2
f 28/26/2 30/27/2 29/6/2
f 31/28/4 32/29/4 33/30/4
f 32/29/4 34/31/4 33/30/4
f 33/30/5 34/31/5 35/32/5
f 34/31/5 36/33/5 35/32/5
f 37/28/6 38/29/6 39/30/6
f 38/29/6 40/31/6 39/30/6
f 39/30/6 40/31/6 41/32/6
f 40/31/6 42/33/6 41/32/6
f 43/28/7 44/29/7 45/30/7
f 44/29/7 46/31/7 45/30/7
f 45/30/7 46/31/7 47/32/7
f 46/31/7 48/33/7 47/32/7
f 49/14/2 50/13/2 51/16/2
f 50/13/2 52/15/2 51/16/2
f 51/16/2 52/15/2 53/18/2
f 52/15/2 54/17/2 53/18/2
f 55/28/8 56/29/8 57/30/8
f 56/29/8 58/31/8 57/30/8
f 57/30/9 58/31/9 59/32/9
f 58/31/9 60/33/9 59/32/9
f 61/28/10 62/29/10 63/30/10
f 62/29/10 64/31/10 63/30/10
f 63/30/10 64/31/10 65/32/10
f 64/31/10 66/33/10 65/32/10
f 67/28/11 68/29/11 69/30/11
f 68/29/11 70/31/11 69/30/11
f 69/30/12 70/31/12 71/32/12
f 70/31/12 72/33/12 71/32/12
f 74/34/2 76/35/2 73/36/2
f 77/37/13 79/38/14 80/37/13
f 81/39/10 83/40/10 84/40/10
f 86/38/15 88/39/16 85/40/17
f 90/41/18 92/42/19 89/43/13
f 94/44/10 96/45/10 93/46/10
f 98/39/2 100/38/2 97/37/2
f 101/47/20 103/48/5 104/49/5
f 106/50/21 108/49/22 105/47/13
f 109/47/7 111/48/7 112/49/7
f 114/34/2 116/35/2 113/51/2
f 118/50/23 120/49/24 117/47/23
f 121/47/10 123/48/10 124/49/10
f 126/50/25 128/49/26 125/47/27
f 129/52/10 130/44/10 131/46/10
f 132/42/13 133/53/13 134/43/13
f 33/30/105 70/31/106 31/28/107
f 71/99/108 47/99/108 65/99/108
f 71/100/108 35/101/109 41/100/108
f 134/43/110 23/102/108 53/102/108
f 131/46/108 29/102/108 129/52/108
f 18/103/108 65/103/108 47/103/108
f 47/104/108 53/104/108 59/104/108
f 102/105/2 221/106/2 125/107/2
f 253/108/108 100/109/108 99/110/108
f 74/34/2 75/51/2 76/35/2
f 77/37/111 78/38/13 79/38/112
f 81/39/10 82/39/10 83/40/10
f 86/38/17 87/37/17 88/39/113
f 90/41/13 91/111/13 92/42/114
f 94/44/10 95/112/10 96/45/10
f 98/39/2 99/40/2 100/38/2
f 101/47/115 102/50/5 103/48/116
f 106/50/13 107/48/13 108/49/13
f 109/47/7 110/50/7 111/48/7
f 114/34/2 115/36/2 116/35/2
f 118/50/117 119/48/23 120/49/118
f 121/47/10 122/50/10 123/48/10
f 126/50/119 127/48/27 128/49/27
f 33/30/175 35/32/176 72/33/177
f 70/31/178 68/29/179 31/28/180
f 33/30/181 72/33/182 70/31/183
f 71/99/108 41/99/108 47/99/108
f 71/100/108 72/114/184 35/101/185
f 134/43/186 133/53/187 23/102/108
f 131/46/108 18/102/108 29/102/108
f 47/103/108 48/115/108 18/103/108
f 18/103/108 131/116/108 65/103/108
f 59/104/108 65/104/108 47/104/108
f 47/104/188 134/117/189 53/104/188
f 102/105/2 225/118/2 221/106/2
f 253/108/108 246/108/108 100/109/108
g Pokémon_Center.003_pc_2
usemtl pc_2
f 135/54/17 136/55/17 137/56/17
f 136/55/17 138/57/17 137/56/17
f 137/56/17 138/57/17 139/54/17
f 138/57/17 140/55/17 139/54/17
f 141/58/28 142/59/28 143/60/28
f 142/59/28 144/61/28 143/60/28
f 143/60/29 144/61/29 145/58/29
f 144/61/29 146/59/29 145/58/29
f 147/62/30 148/63/30 149/64/17
f 148/63/30 150/65/17 149/64/17
f 149/64/17 150/65/17 151/62/31
f 150/65/17 152/63/31 151/62/31
f 154/66/17 156/67/17 153/68/17
f 157/68/17 159/66/17 160/68/17
f 161/59/32 163/60/33 164/61/34
f 166/69/35 168/70/36 165/71/37
f 170/58/38 172/61/39 169/59/40
f 174/69/41 176/70/42 173/71/42
f 178/72/43 180/71/44 177/69/44
f 182/72/45 184/71/45 181/69/45
f 186/73/3 188/74/3 185/75/3
f 190/60/46 192/59/47 189/58/48
f 194/60/49 196/59/30 193/58/30
f 198/60/50 200/59/51 197/58/52
f 201/69/53 203/70/54 204/71/55
f 206/72/56 208/71/57 205/69/58
f 210/72/59 212/71/60 209/69/61
f 213/69/62 215/70/63 216/71/64
f 218/72/65 220/71/66 217/69/66
f 222/72/67 224/71/68 221/69/69
f 226/72/70 228/71/70 225/69/70
f 229/69/71 231/70/72 232/71/73
f 234/55/17 236/56/17 233/54/17
f 238/73/1 240/74/1 237/75/1
f 242/73/74 244/74/2 241/75/2
f 246/73/2 248/74/2 245/75/2
f 249/58/75 251/61/76 252/59/77
f 254/76/78 256/75/79 253/73/2
f 258/77/80 260/78/81 257/79/81
f 261/79/82 263/80/83 264/78/84
f 266/81/85 268/68/85 265/66/85
f 269/82/86 270/83/86 271/84/86
f 272/85/87 273/60/87 274/58/87
f 275/85/88 276/60/88 277/58/88
f 278/85/89 279/60/89 280/58/89
f 281/85/90 282/60/90 283/58/90
f 284/82/2 285/83/2 286/84/2
f 287/82/2 288/83/2 289/84/2
f 290/82/2 291/83/2 292/84/2
f 293/82/2 294/83/2 295/84/2
f 296/82/86 297/83/86 298/84/86
f 299/82/86 300/83/86 301/84/86
f 302/82/86 303/83/86 304/84/86
f 154/66/17 155/81/17 156/67/17
f 157/68/120 158/66/120 159/66/120
f 161/59/121 162/58/34 163/60/122
f 166/69/123 167/72/36 168/70/124
f 170/58/125 171/60/126 172/61/127
f 174/69/128 175/72/42 176/70/35
f 178/72/71 179/70/129 180/71/130
f 182/72/45 183/70/45 184/71/45
f 186/73/3 187/76/3 188/74/3
f 190/60/131 191/61/132 192/59/133
f 194/60/134 195/61/135 196/59/136
f 198/60/122 199/61/122 200/59/137
f 201/69/138 202/72/139 203/70/140
f 206/72/57 207/70/58 208/71/141
f 210/72/142 211/70/143 212/71/144
f 213/69/145 214/72/146 215/70/147
f 218/72/66 219/70/66 220/71/148
f 222/72/149 223/70/149 224/71/150
f 226/72/70 227/70/70 228/71/70
f 229/69/151 230/72/152 231/70/152
f 234/55/17 235/57/17 236/56/17
f 238/73/1 239/76/1 240/74/1
f 242/73/153 243/76/2 244/74/154
f 246/73/2 247/76/2 248/74/2
f 249/58/155 250/60/156 251/61/157
f 254/76/158 255/74/2 256/75/2
f 258/77/159 259/80/160 260/78/81
f 261/79/161 262/77/162 263/80/163
f 266/81/164 267/67/164 268/68/164
g Pokémon_Center.003_light_a
usemtl light_a
f 306/86/91 308/87/92 305/88/29
f 310/89/93 312/90/94 309/91/29
f 314/92/95 316/93/96 313/94/7
f 317/92/97 319/93/98 320/95/99
f 322/86/100 324/87/101 321/96/29
f 325/92/87 326/97/102 327/98/103
f 328/92/104 329/97/88 330/98/104
f 306/86/165 307/96/29 308/87/166
f 310/89/167 311/113/29 312/90/29
f 314/92/168 315/95/169 316/93/170
f 317/92/171 318/94/104 319/93/172
f 322/86/173 323/88/29 324/87/174
l 65 53
