# Blender 4.2.3 LTS
# www.blender.org
mtllib wooden-sign.mtl
g Wooden_Sign_Post_Mesh
v -1.500000 -0.132499 -1.125000
v -1.500000 -0.132499 1.875000
v -1.500000 30.617500 1.874997
v -1.500000 30.617500 -1.125003
v 1.500000 -0.132499 1.875000
v 1.500000 -0.132499 -1.125000
v 1.500000 30.617500 -1.125003
v 1.500000 30.617500 1.874997
v -1.500000 30.617500 1.874997
v 1.500000 30.617500 1.874997
v 1.500000 30.617500 -1.125003
v -1.500000 30.617500 -1.125003
v -1.500000 -0.132499 1.875000
v 1.500000 -0.132499 1.875000
v 1.500000 30.617500 1.874997
v -1.500000 30.617500 1.874997
vn -1.0000 -0.0000 -0.0000
vn 1.0000 -0.0000 -0.0000
vn -0.0000 1.0000 -0.0000
vn -0.0000 -0.0000 1.0000
vn -0.0000 -0.0000 -1.0000
vn -0.0000 -1.0000 -0.0000
vt 0.468750 -0.968750
vt 0.281250 -0.531250
vt 0.281250 -0.968750
vt 0.218750 -0.718750
vt 0.031250 -0.531250
vt 0.031250 -0.718750
vt 0.000000 0.000000
vt 0.218750 -0.531250
vt 0.468750 -0.531250
s 0
g Wooden_Sign_Post_eo06
usemtl eo06
f 1/7/5 11/8/5 6/7/5
f 1/7/5 12/5/5 11/8/5
g Wooden_Sign_Post_
usemtl eo06
f 2/1/1 4/2/1 1/3/1
f 6/1/2 8/2/2 5/3/2
f 10/4/3 12/5/3 9/6/3
f 14/1/4 16/2/4 13/3/4
f 1/7/6 14/1/6 13/3/6
f 2/1/1 3/9/1 4/2/1
f 6/1/2 7/9/2 8/2/2
f 10/4/3 11/8/3 12/5/3
f 14/1/4 15/9/4 16/2/4
f 1/7/6 6/7/6 14/1/6
g Wooden_Sign_Mesh
v -9.000000 13.117501 1.874999
v -9.000000 13.117501 5.124999
v -9.000000 29.617500 5.124998
v -9.000000 29.617500 1.874998
v 9.000000 13.117501 5.124999
v 9.000000 13.117501 1.874999
v 9.000000 29.617500 1.874998
v 9.000000 29.617500 5.124998
v -9.000000 29.617500 5.124998
v 9.000000 29.617500 5.124998
v 9.000000 29.617500 1.874998
v -9.000000 29.617500 1.874998
v -9.000000 13.117501 5.124999
v 9.000000 13.117501 5.124999
v 9.000000 29.617500 5.124998
v -9.000000 29.617500 5.124998
vn -1.0000 -0.0000 -0.0000
vn 1.0000 -0.0000 -0.0000
vn -0.0000 1.0000 -0.0000
vn -0.0000 -0.0000 1.0000
vn -0.0000 -1.0000 -0.0000
vn -0.0000 -0.0000 -1.0000
vt 0.468750 -0.718750
vt 0.281250 -0.531250
vt 0.281250 -0.718750
vt 0.031250 -0.718750
vt 0.218750 -0.531250
vt 0.031250 -0.531250
vt 0.031250 -0.031250
vt 0.468750 -0.468750
vt 0.468750 -0.031250
vt 0.000000 0.000000
vt 0.218750 -0.718750
vt 0.468750 -0.531250
vt 0.031250 -0.468750
s 0
g Wooden_Sign_eo06
usemtl eo06
f 22/19/11 29/18/11 17/19/11
f 22/19/11 30/16/11 29/18/11
g Wooden_Sign_
usemtl eo06
f 18/10/7 20/11/7 17/12/7
f 22/10/8 24/11/8 21/12/8
f 26/13/9 28/14/9 25/15/9
f 30/16/10 32/17/10 29/18/10
f 27/20/12 17/19/12 28/14/12
f 18/10/7 19/21/7 20/11/7
f 22/10/8 23/21/8 24/11/8
f 26/13/9 27/20/9 28/14/9
f 30/16/10 31/22/10 32/17/10
f 27/20/12 22/19/12 17/19/12
