# Blender 4.2.3 LTS
# www.blender.org
mtllib poke-mart.mtl
g Poké_Mart_Mesh
v 21.586685 35.032452 19.588554
v 0.891375 35.032452 19.588554
v 21.586685 30.032452 19.588554
v 0.891375 30.032452 19.588554
v 21.586685 9.032452 19.588556
v 0.891375 9.032452 19.588556
v 21.586685 0.032455 19.588556
v 0.891375 0.032455 19.588556
v 29.123795 35.032448 -11.411444
v 29.123795 35.032452 12.004568
v 29.123795 30.032450 -11.411444
v 29.123795 30.032450 12.004568
v 29.123795 9.032450 -11.411442
v 29.123795 9.032450 12.004570
v 29.123795 0.032454 -11.411442
v 29.123795 0.032454 12.004570
v 29.123795 35.032452 12.004568
v 21.586685 35.032452 19.588554
v 29.123795 30.032450 12.004568
v 21.586685 30.032452 19.588554
v 29.123795 9.032450 12.004570
v 21.586685 9.032452 19.588556
v 29.123795 0.032454 12.004570
v 21.586685 0.032455 19.588556
v -19.108625 35.032452 19.588554
v -23.803936 35.032452 19.588554
v -19.108625 30.032452 19.588554
v -23.803936 30.032452 19.588554
v -19.108625 9.032452 19.588556
v -23.803936 9.032452 19.588556
v -19.108625 0.032455 19.588556
v -23.803936 0.032455 19.588556
v -23.803936 35.032452 19.588554
v -31.341045 35.032452 12.004568
v -23.803936 30.032452 19.588554
v -31.341045 30.032450 12.004568
v -23.803936 9.032452 19.588556
v -31.341045 9.032450 12.004570
v -23.803936 0.032455 19.588556
v -31.341045 0.032454 12.004570
v 21.586685 35.032448 -18.874334
v 29.123795 35.032448 -11.411444
v 21.586685 30.032448 -18.874334
v 29.123795 30.032450 -11.411444
v 21.586685 9.032448 -18.874332
v 29.123795 9.032450 -11.411442
v 21.586685 0.032452 -18.874332
v 29.123795 0.032454 -11.411442
v 0.891375 30.032452 19.588554
v 0.891375 30.032452 17.588552
v 0.891375 9.032452 19.588556
v 0.891375 9.032452 17.588554
v 0.891375 0.032455 19.588556
v 0.891375 0.032455 17.588554
v -19.108625 30.032452 17.588552
v -19.108625 30.032452 19.588554
v -19.108625 9.032452 17.588554
v -19.108625 9.032452 19.588556
v -19.108625 0.032455 17.588554
v -19.108625 0.032455 19.588556
v -31.341045 30.032450 12.004568
v -31.341045 30.032450 -11.411444
v -31.341045 9.032450 12.004570
v -31.341045 9.032450 -11.411442
v -31.341045 0.032454 12.004570
v -31.341045 0.032454 -11.411442
v -31.341045 30.032450 -11.411444
v -23.803936 30.032448 -18.874334
v -31.341045 9.032450 -11.411442
v -23.803936 9.032448 -18.874332
v -31.341045 0.032454 -11.411442
v -23.803936 0.032452 -18.874332
v -19.108625 0.032455 17.588554
v -19.108625 0.032454 1.588555
v -19.108625 30.032450 1.588552
v -19.108625 9.032452 17.588554
v 0.891375 30.032450 1.588552
v 0.891375 0.032454 1.588555
v 0.891375 0.032455 17.588554
v 0.891375 9.032452 17.588554
v -19.108625 0.032455 17.588554
v 0.891375 0.032455 17.588554
v 0.891375 0.032454 1.588555
v -19.108625 0.032454 1.588555
v -19.108625 35.032452 19.588554
v -19.108625 30.032452 19.588554
v 0.891375 30.032452 19.588554
v 0.891375 35.032452 19.588554
v -19.108625 0.032454 1.588555
v 0.891375 0.032454 1.588555
v 0.891375 30.032450 1.588552
v -19.108625 30.032450 1.588552
v -31.341045 30.032450 -11.411444
v -31.341045 30.032450 12.004568
v -31.341045 35.032452 12.004568
v -31.341045 35.032448 -11.411444
v -23.803936 30.032448 -18.874334
v -31.341045 30.032450 -11.411444
v -31.341045 35.032448 -11.411444
v -23.803936 35.032448 -18.874334
v -19.108625 30.032450 1.588552
v -19.108625 30.032452 17.588552
v -19.108625 9.032452 17.588554
v 0.891375 9.032452 17.588554
v 0.891375 30.032452 17.588552
v 0.891375 30.032450 1.588552
v -24.479715 37.287201 21.551445
v -16.102764 49.326271 15.270192
v -33.901592 37.287201 12.129567
v -25.526596 49.326271 5.846363
v -33.901592 37.287197 -11.952466
v -25.526596 49.326271 -4.622386
v 5.891375 49.326271 15.270192
v 5.891375 37.287201 21.551445
v 22.262465 37.287201 21.551445
v 13.885514 49.326271 15.270192
v -8.108625 49.326271 15.270192
v -8.108625 37.287201 21.551445
v 5.891375 37.287201 21.551445
v 5.891375 49.326271 15.270192
v 31.684343 37.287201 12.129567
v 31.684343 37.287197 -11.952466
v 23.309345 49.326271 -4.622386
v 23.309345 49.326271 5.846363
v 22.262465 37.287201 21.551445
v 31.684343 37.287201 12.129567
v 23.309345 49.326271 5.846363
v 13.885514 49.326271 15.270192
v -24.479715 37.287201 21.551445
v -8.108625 37.287201 21.551445
v -8.108625 49.326271 15.270192
v -16.102764 49.326271 15.270192
v 30.391375 36.525478 -11.335274
v 21.571064 36.525478 -20.155584
v 14.010514 48.539158 -13.856765
v 22.830824 48.541107 -5.036446
v 30.391375 36.525482 12.004568
v 30.391375 36.525478 -11.335274
v 22.830824 48.541107 -5.036446
v 22.830824 48.541107 5.703785
v 21.571064 36.525482 20.824886
v 30.391375 36.525482 12.004568
v 22.830824 48.541107 5.703785
v 14.010514 48.541111 14.524098
v 14.010514 48.541111 14.524098
v -16.227764 48.541111 14.524098
v -23.788315 36.525482 20.824886
v 21.571064 36.525482 20.824886
v -32.608624 36.525482 12.004568
v -23.788315 36.525482 20.824886
v -16.227764 48.541111 14.524098
v -25.048075 48.541107 5.703785
v -32.608624 36.525478 -11.335274
v -32.608624 36.525482 12.004568
v -25.048075 48.541107 5.703785
v -25.048075 48.541107 -5.036446
v -23.788315 36.525478 -20.155584
v -32.608624 36.525478 -11.335274
v -25.048075 48.541107 -5.036446
v -16.227764 48.539158 -13.856765
v 21.571064 36.525478 -20.155584
v -23.788315 36.525478 -20.155584
v -16.227764 48.539158 -13.856765
v 14.010514 48.539158 -13.856765
v 29.131605 34.306728 -11.335274
v 21.571064 34.306728 -18.895824
v 21.571064 36.525478 -20.155584
v 30.391375 36.525478 -11.335274
v 29.131605 34.306732 12.004568
v 29.131605 34.306728 -11.335274
v 30.391375 36.525478 -11.335274
v 30.391375 36.525482 12.004568
v 21.571064 34.306732 19.563166
v 29.131605 34.306732 12.004568
v 30.391375 36.525482 12.004568
v 21.571064 36.525482 20.824886
v -23.788315 36.525482 20.824886
v -23.788315 34.306732 19.563166
v 21.571064 34.306732 19.563166
v 21.571064 36.525482 20.824886
v -31.348856 34.306732 12.004568
v -23.788315 34.306732 19.563166
v -23.788315 36.525482 20.824886
v -32.608624 36.525482 12.004568
v -31.348856 34.306728 -11.335274
v -31.348856 34.306732 12.004568
v -32.608624 36.525482 12.004568
v -32.608624 36.525478 -11.335274
v -23.788315 34.306728 -18.895824
v -31.348856 34.306728 -11.335274
v -32.608624 36.525478 -11.335274
v -23.788315 36.525478 -20.155584
v 21.571064 34.306728 -18.895824
v -23.788315 34.306728 -18.895824
v -23.788315 36.525478 -20.155584
v 21.571064 36.525478 -20.155584
v -1.108625 48.541107 0.264332
v 14.010514 48.539158 -13.856765
v -16.227764 48.539158 -13.856765
v 14.010514 48.539158 -13.856765
v -1.108625 48.541107 0.264332
v 22.830824 48.541107 -5.036446
v 22.830824 48.541107 -5.036446
v -1.108625 48.541107 0.264332
v 22.830824 48.541107 5.703785
v -1.108625 48.541107 0.264332
v -16.227764 48.541111 14.524098
v 14.010514 48.541111 14.524098
v -1.108625 48.541107 0.264332
v -25.048075 48.541107 5.703785
v -16.227764 48.541111 14.524098
v -1.108625 48.541107 0.264332
v -25.048075 48.541107 -5.036446
v -25.048075 48.541107 5.703785
v -16.227764 48.539158 -13.856765
v -25.048075 48.541107 -5.036446
v -1.108625 48.541107 0.264332
v 22.830824 48.541107 5.703785
v -1.108625 48.541107 0.264332
v 14.010514 48.541111 14.524098
vn -0.0000 -0.0000 1.0000
vn 1.0000 -0.0000 -0.0000
vn 0.7090 -0.0000 0.7053
vn 0.7088 -0.0000 0.7054
vn 0.7091 -0.0000 0.7051
vn -0.7090 -0.0000 0.7053
vn -0.7091 -0.0000 0.7051
vn -0.7088 -0.0000 0.7054
vn 0.7032 -0.0000 -0.7110
vn 0.7031 -0.0000 -0.7111
vn -1.0000 -0.0000 -0.0000
vn -0.7031 -0.0000 -0.7111
vn -0.7032 -0.0000 -0.7110
vn -0.0000 1.0000 -0.0000
vn -0.7032 0.0001 -0.7110
vn -0.0001 -0.0006 -1.0000
vn -0.0003 0.0005 -1.0000
vn -0.0000 0.0006 -1.0000
vn 0.0006 -0.0000 -1.0000
vn -0.0000 -1.0000 -0.0000
vn -0.5480 0.6319 0.5480
vn -0.8945 -0.0000 0.4472
vn -0.8944 -0.0001 0.4473
vn -0.8945 -0.0000 0.4471
vn -0.8944 -0.0001 0.4472
vn -0.8944 -0.0000 0.4473
vn -0.0000 0.4651 0.8853
vn 0.0011 0.4649 0.8854
vn 0.0007 0.4650 0.8853
vn 0.9705 -0.1094 0.2147
vn 0.7177 0.2540 0.6484
vn 0.8944 -0.0001 0.4472
vn 0.5567 0.6356 0.5349
vn 0.6014 -0.0471 0.7976
vn 0.5480 0.6319 0.5480
vn -0.0014 0.4647 0.8855
vn 0.0017 0.4646 0.8855
vn 0.6088 0.1613 -0.7768
vn 0.5480 0.6320 -0.5480
vn 0.6991 0.1503 -0.6991
vn 0.9972 0.0044 -0.0746
vn 0.8459 0.5333 -0.0004
vn 0.8650 0.2227 0.4497
vn 0.5479 0.6321 0.5479
vn -0.0004 0.4649 0.8854
vn -0.1108 0.0119 0.9938
vn -0.0000 0.4650 0.8853
vn -0.6088 0.1613 0.7768
vn -0.5479 0.6321 0.5479
vn -0.6991 0.1504 0.6991
vn -0.9677 0.0513 0.2469
vn -0.8459 0.5333 0.0004
vn -0.8459 0.5334 -0.0000
vn -0.8649 0.2228 -0.4498
vn -0.5479 0.6321 -0.5480
vn -0.1028 -0.0077 -0.9947
vn -0.0002 0.4651 -0.8853
vn -0.0000 -0.0176 -0.9998
vn 0.6562 -0.3726 -0.6562
vn 0.5819 0.1275 -0.8032
vn 0.6991 0.1504 -0.6991
vn 0.8694 -0.4942 -0.0003
vn 0.9994 -0.0011 -0.0358
vn 0.8693 -0.4942 -0.0000
vn 0.6561 -0.3735 0.6558
vn 0.8033 0.1272 0.5819
vn 0.6991 0.1500 0.6991
vn -0.0000 -0.4943 0.8693
vn 0.2391 -0.0536 0.9695
vn -0.6560 -0.3730 0.6562
vn -0.6474 0.1461 0.7480
vn -0.6561 -0.3730 0.6561
vn -0.8694 -0.4942 0.0003
vn -0.9994 -0.0011 0.0358
vn -0.8693 -0.4942 -0.0000
vn -0.6562 -0.3726 -0.6562
vn -0.7480 0.1457 -0.6475
vn -0.0004 -0.4943 -0.8693
vn -0.0181 -0.0179 -0.9997
vn -0.0000 -0.4944 -0.8692
vn -0.0000 1.0000 -0.0001
vn -0.0000 1.0000 -0.0002
vn -0.7032 0.0002 -0.7110
vn -0.7033 -0.0004 -0.7109
vn 0.0002 -0.0005 -1.0000
vn -0.0000 -0.0006 -1.0000
vn -0.0001 0.0006 -1.0000
vn -0.0003 -0.0005 -1.0000
vn -0.0006 -0.0000 -1.0000
vn 0.0003 -0.0005 -1.0000
vn 0.0003 0.0005 -1.0000
vn 0.0001 -0.0006 -1.0000
vn 0.0001 0.0006 -1.0000
vn 0.0014 0.4647 0.8855
vn -0.0017 0.4646 0.8855
vn 0.0020 0.4643 0.8857
vn -0.0014 0.4647 0.8854
vn 0.8379 0.0812 0.5398
vn 0.9730 -0.1130 0.2014
vn 0.5430 0.6325 0.5523
vn 0.8944 -0.0000 0.4472
vn 0.9152 0.0197 0.4024
vn -0.0011 0.4649 0.8854
vn 0.8649 0.2228 -0.4498
vn 0.5479 0.6321 -0.5480
vn 0.9677 0.0513 0.2468
vn 0.8459 0.5334 -0.0000
vn 0.8459 0.5333 0.0004
vn 0.6088 0.1613 0.7768
vn 0.6991 0.1504 0.6991
vn 0.0001 0.4650 0.8853
vn 0.0995 0.0096 0.9950
vn -0.8649 0.2227 0.4498
vn -0.9972 0.0044 -0.0745
vn -0.8459 0.5333 -0.0004
vn -0.6088 0.1613 -0.7768
vn -0.6991 0.1503 -0.6990
vn -0.5480 0.6320 -0.5480
vn 0.1144 -0.0053 -0.9934
vn -0.0000 0.4651 -0.8853
vn 0.0005 0.4650 -0.8853
vn 0.7480 0.1457 -0.6475
vn 0.9716 -0.0500 0.2312
vn 0.6560 -0.3730 0.6562
vn 0.6561 -0.3730 0.6561
vn 0.6473 0.1461 0.7481
vn -0.0186 -0.0003 0.9998
vn -0.6561 -0.3735 0.6558
vn -0.6992 0.1500 0.6991
vn -0.8033 0.1272 0.5818
vn -0.9716 -0.0500 -0.2312
vn -0.6991 0.1504 -0.6991
vn -0.5819 0.1275 -0.8032
vn 0.2312 -0.0694 -0.9704
vt 0.609375 0.000000
vt 0.000000 0.000000
vt 0.609375 -0.187500
vt 0.000000 -0.187500
vt 0.609375 -0.781250
vt 0.000000 -0.781250
vt 0.609375 -1.000000
vt 0.000000 -1.000000
vt 0.375000 0.000000
vt 0.171875 0.000000
vt 0.375000 -0.187500
vt 0.171875 -0.187500
vt 0.375000 -0.781250
vt 0.171875 -0.781250
vt 0.375000 -1.000000
vt 0.171875 -1.000000
vt 0.531250 0.000000
vt 0.531250 -0.187500
vt 0.531250 -0.781250
vt 0.531250 -1.000000
vt 0.578125 0.000000
vt 0.578125 -0.781250
vt 0.578125 -1.000000
vt 0.953125 -0.984375
vt 0.890625 -0.937500
vt 0.890625 -0.984375
vt 0.953125 -0.890625
vt 0.890625 -0.890625
vt 0.203125 -0.187500
vt 0.406250 0.000000
vt 0.203125 0.000000
vt 0.953125 0.046933
vt 0.890625 0.046933
vt 0.901987 0.016745
vt 0.969370 0.071541
vt 0.974691 0.016745
vt 0.375000 -0.859375
vt 0.375000 -0.359375
vt 0.140625 -0.859375
vt 0.140625 -0.359375
vt 0.531250 -0.859375
vt 0.531250 -0.359375
vt 0.515625 -0.859375
vt 0.984375 -0.359375
vt 0.515625 -0.359375
vt 0.109375 -0.859375
vt 0.015625 -0.359375
vt 0.015625 -0.859375
vt 0.109375 -0.359375
vt 0.031250 -0.843750
vt 0.093750 -0.781250
vt 0.031250 -0.781250
vt 0.093750 -0.843750
vt 0.015625 -0.937500
vt 0.406250 -0.187500
vt 0.898007 0.071541
vt 0.984375 -0.859375
s 0
g Poké_Mart_lambert2
usemtl lambert2
f 1/1/1 2/2/1 3/3/1
f 2/2/1 4/4/1 3/3/1
f 3/3/1 4/4/1 5/5/1
f 4/4/1 6/6/1 5/5/1
f 5/5/1 6/6/1 7/7/1
f 6/6/1 8/8/1 7/7/1
f 9/9/2 10/10/2 11/11/2
f 10/10/2 12/12/2 11/11/2
f 11/11/2 12/12/2 13/13/2
f 12/12/2 14/14/2 13/13/2
f 13/13/2 14/14/2 15/15/2
f 14/14/2 16/16/2 15/15/2
f 17/9/3 18/10/3 19/11/3
f 18/10/3 20/12/3 19/11/3
f 19/11/4 20/12/4 21/13/4
f 20/12/5 22/14/5 21/13/5
f 21/13/5 22/14/5 23/15/5
f 22/14/5 24/16/5 23/15/5
f 25/1/1 26/17/1 27/3/1
f 26/17/1 28/18/1 27/3/1
f 27/3/1 28/18/1 29/5/1
f 28/18/1 30/19/1 29/5/1
f 29/5/1 30/19/1 31/7/1
f 30/19/1 32/20/1 31/7/1
f 33/10/6 34/9/6 35/12/6
f 34/9/6 36/11/6 35/12/6
f 35/12/7 36/11/7 37/14/7
f 36/11/8 38/13/8 37/14/8
f 37/14/7 38/13/7 39/16/7
f 38/13/7 40/15/7 39/16/7
f 41/9/9 42/10/9 43/11/9
f 42/10/9 44/12/9 43/11/9
f 43/11/9 44/12/9 45/13/9
f 44/12/10 46/14/10 45/13/10
f 45/13/9 46/14/9 47/15/9
f 46/14/9 48/16/9 47/15/9
f 49/1/11 50/21/11 51/5/11
f 50/21/11 52/22/11 51/5/11
f 51/5/11 52/22/11 53/7/11
f 52/22/11 54/23/11 53/7/11
f 55/1/2 56/21/2 57/5/2
f 56/21/2 58/22/2 57/5/2
f 57/5/2 58/22/2 59/7/2
f 58/22/2 60/23/2 59/7/2
f 61/12/11 62/11/11 63/14/11
f 62/11/11 64/13/11 63/14/11
f 63/14/11 64/13/11 65/16/11
f 64/13/11 66/15/11 65/16/11
f 67/11/12 68/12/12 69/13/12
f 68/12/13 70/14/13 69/13/13
f 69/13/13 70/14/13 71/15/13
f 70/14/13 72/16/13 71/15/13
f 74/24/2 76/25/2 73/26/2
f 78/24/11 80/25/11 77/27/11
f 82/26/14 84/27/14 81/28/14
f 86/29/1 88/30/1 85/31/1
f 90/24/1 92/28/1 89/26/1
f 94/11/11 96/10/11 93/12/11
f 98/12/13 100/9/15 97/11/13
f 101/27/2 102/28/2 103/25/2
f 104/25/11 105/28/11 106/27/11
f 43/11/16 100/9/17 41/9/18
f 45/13/19 70/14/17 43/11/19
f 106/32/20 102/33/20 101/32/20
f 86/34/20 105/35/20 87/36/20
f 74/24/2 75/27/2 76/25/2
f 78/24/11 79/26/11 80/25/11
f 82/26/14 83/24/14 84/27/14
f 86/29/1 87/55/1 88/30/1
f 90/24/1 91/27/1 92/28/1
f 94/11/11 95/9/11 96/10/11
f 98/12/83 99/10/13 100/9/84
f 43/11/85 97/11/86 100/9/18
f 45/13/87 47/15/16 72/16/88
f 70/14/89 97/11/89 43/11/90
f 45/13/91 72/16/92 70/14/93
f 106/32/20 105/33/20 102/33/20
f 86/34/20 102/56/20 105/35/20
g Poké_Mart_light2
usemtl light2
f 107/37/21 108/38/21 109/39/22
f 108/38/21 110/40/23 109/39/24
f 109/39/25 110/40/26 111/41/25
f 110/40/25 112/42/25 111/41/26
f 114/41/27 116/40/28 113/42/27
f 118/43/27 120/44/29 117/45/27
f 121/39/30 123/42/31 124/40/32
f 125/39/33 127/38/34 128/40/35
f 130/41/36 132/40/37 129/39/27
f 114/41/94 115/39/27 116/40/95
f 118/43/96 119/57/27 120/44/97
f 121/39/98 122/41/32 123/42/99
f 125/39/100 126/37/101 127/38/102
f 130/41/27 131/42/27 132/40/103
g Poké_Mart_lambert4
usemtl lambert4
f 134/46/38 136/47/39 133/48/40
f 138/46/41 140/47/42 137/48/2
f 141/48/43 143/49/44 144/47/44
f 146/47/45 148/46/46 145/49/47
f 150/46/48 152/47/49 149/48/50
f 153/48/51 155/49/52 156/47/53
f 157/48/54 159/49/55 160/47/55
f 162/46/56 164/47/57 161/48/58
f 165/50/59 167/51/60 168/52/61
f 170/53/62 172/52/63 169/50/64
f 173/50/65 175/51/66 176/52/67
f 178/50/68 180/51/69 177/52/1
f 182/53/70 184/52/71 181/50/72
f 186/53/73 188/52/74 185/50/75
f 190/53/76 192/52/77 189/50/76
f 194/53/78 196/52/79 193/50/80
f 197/54/81 198/24/81 199/27/81
f 200/27/82 201/54/82 202/24/82
f 203/27/14 204/54/14 205/24/14
f 206/54/14 207/24/14 208/27/14
f 209/54/14 210/24/14 211/27/14
f 212/54/14 213/24/14 214/27/14
f 215/24/82 216/27/82 217/54/82
f 218/27/14 219/54/14 220/24/14
f 134/46/104 135/49/105 136/47/105
f 138/46/106 139/49/107 140/47/108
f 141/48/109 142/46/110 143/49/44
f 146/47/111 147/48/1 148/46/112
f 150/46/113 151/49/49 152/47/49
f 153/48/114 154/46/11 155/49/115
f 157/48/116 158/46/117 159/49/118
f 162/46/119 163/49/120 164/47/121
f 165/50/59 166/53/59 167/51/122
f 170/53/64 171/51/2 172/52/123
f 173/50/124 174/53/125 175/51/126
f 178/50/68 179/53/68 180/51/127
f 182/53/128 183/51/129 184/52/130
f 186/53/75 187/51/11 188/52/131
f 190/53/76 191/51/132 192/52/133
f 194/53/80 195/51/58 196/52/134
